REM DIRINDEX 1\3,1\4,1\5,1\6,1\2\7,1\2\8,1\2\9,1\10
REM DIRNAME folder01,folder02,folder03,folder04,folder05,folder06,folder07,folder08,folder09,folder10
TITLE ""
FILE "2-43 Level 6-896-906.mp3" MP3
  TRACK 01 AUDIO
    TITLE "0:"
    INDEX 01 00:00:00
  TRACK 02 AUDIO
    TITLE "7:cjc056_3090"
    INDEX 01 00:00:07
  TRACK 03 AUDIO
    TITLE "0:"
    INDEX 01 00:01:07
  TRACK 04 AUDIO
    TITLE "8:cjc056_3091"
    INDEX 01 00:01:15
  TRACK 05 AUDIO
    TITLE "0:"
    INDEX 01 00:02:36
  TRACK 06 AUDIO
    TITLE "9:cjc056_3092"
    INDEX 01 00:02:49
  TRACK 07 AUDIO
    TITLE "0:"
    INDEX 01 00:04:60
  TRACK 08 AUDIO
    TITLE "7:cjc056_3093"
    INDEX 01 00:05:38
  TRACK 09 AUDIO
    TITLE "0:"
    INDEX 01 00:06:49
  TRACK 10 AUDIO
    TITLE "8:cjc056_3094"
    INDEX 01 00:06:61
  TRACK 11 AUDIO
    TITLE "0:"
    INDEX 01 00:08:19
  TRACK 12 AUDIO
    TITLE "9:cjc056_3095"
    INDEX 01 00:08:30
  TRACK 13 AUDIO
    TITLE "0:"
    INDEX 01 00:11:50
  TRACK 14 AUDIO
    TITLE "7:cjc056_3096"
    INDEX 01 00:12:26
  TRACK 15 AUDIO
    TITLE "0:"
    INDEX 01 00:13:20
  TRACK 16 AUDIO
    TITLE "8:cjc056_3097"
    INDEX 01 00:13:30
  TRACK 17 AUDIO
    TITLE "0:"
    INDEX 01 00:14:29
  TRACK 18 AUDIO
    TITLE "9:cjc056_3098"
    INDEX 01 00:14:41
  TRACK 19 AUDIO
    TITLE "0:"
    INDEX 01 00:16:69
  TRACK 20 AUDIO
    TITLE "7:cjc056_3099"
    INDEX 01 00:17:45
  TRACK 21 AUDIO
    TITLE "0:"
    INDEX 01 00:18:46
  TRACK 22 AUDIO
    TITLE "8:cjc056_3100"
    INDEX 01 00:18:60
  TRACK 23 AUDIO
    TITLE "0:"
    INDEX 01 00:20:16
  TRACK 24 AUDIO
    TITLE "9:cjc056_3101"
    INDEX 01 00:20:28
  TRACK 25 AUDIO
    TITLE "0:"
    INDEX 01 00:22:25
  TRACK 26 AUDIO
    TITLE "7:cjc056_3102"
    INDEX 01 00:22:74
  TRACK 27 AUDIO
    TITLE "0:"
    INDEX 01 00:24:10
  TRACK 28 AUDIO
    TITLE "8:cjc056_3103"
    INDEX 01 00:24:18
  TRACK 29 AUDIO
    TITLE "0:"
    INDEX 01 00:25:45
  TRACK 30 AUDIO
    TITLE "9:cjc056_3104"
    INDEX 01 00:25:56
  TRACK 31 AUDIO
    TITLE "0:"
    INDEX 01 00:29:01
  TRACK 32 AUDIO
    TITLE "7:cjc056_3105"
    INDEX 01 00:29:50
  TRACK 33 AUDIO
    TITLE "0:"
    INDEX 01 00:30:61
  TRACK 34 AUDIO
    TITLE "8:cjc056_3106"
    INDEX 01 00:30:71
  TRACK 35 AUDIO
    TITLE "0:"
    INDEX 01 00:32:01
  TRACK 36 AUDIO
    TITLE "9:cjc056_3107"
    INDEX 01 00:32:15
  TRACK 37 AUDIO
    TITLE "0:"
    INDEX 01 00:35:27
  TRACK 38 AUDIO
    TITLE "7:cjc056_3108"
    INDEX 01 00:36:03
  TRACK 39 AUDIO
    TITLE "0:"
    INDEX 01 00:37:08
  TRACK 40 AUDIO
    TITLE "8:cjc056_3109"
    INDEX 01 00:37:22
  TRACK 41 AUDIO
    TITLE "0:"
    INDEX 01 00:38:31
  TRACK 42 AUDIO
    TITLE "9:cjc056_3110"
    INDEX 01 00:38:43
  TRACK 43 AUDIO
    TITLE "0:"
    INDEX 01 00:40:62
  TRACK 44 AUDIO
    TITLE "7:cjc056_3111"
    INDEX 01 00:41:38
  TRACK 45 AUDIO
    TITLE "0:"
    INDEX 01 00:42:47
  TRACK 46 AUDIO
    TITLE "8:cjc056_3112"
    INDEX 01 00:42:59
  TRACK 47 AUDIO
    TITLE "0:"
    INDEX 01 00:43:56
  TRACK 48 AUDIO
    TITLE "9:cjc056_3113"
    INDEX 01 00:43:68
  TRACK 49 AUDIO
    TITLE "0:"
    INDEX 01 00:46:09
  TRACK 50 AUDIO
    TITLE "7:cjc056_3114"
    INDEX 01 00:46:60
  TRACK 51 AUDIO
    TITLE "0:"
    INDEX 01 00:47:60
  TRACK 52 AUDIO
    TITLE "8:cjc056_3115"
    INDEX 01 00:47:72
  TRACK 53 AUDIO
    TITLE "0:"
    INDEX 01 00:48:73
  TRACK 54 AUDIO
    TITLE "9:cjc056_3116"
    INDEX 01 00:49:08
  TRACK 55 AUDIO
    TITLE "0:"
    INDEX 01 00:50:70
  TRACK 56 AUDIO
    TITLE "7:cjc056_3117"
    INDEX 01 00:51:46
  TRACK 57 AUDIO
    TITLE "0:"
    INDEX 01 00:52:45
  TRACK 58 AUDIO
    TITLE "8:cjc056_3118"
    INDEX 01 00:52:59
  TRACK 59 AUDIO
    TITLE "0:"
    INDEX 01 00:53:68
  TRACK 60 AUDIO
    TITLE "9:cjc056_3119"
    INDEX 01 00:54:09
  TRACK 61 AUDIO
    TITLE "0:"
    INDEX 01 00:57:07
  TRACK 62 AUDIO
    TITLE "7:cjc056_3120"
    INDEX 01 00:57:54
  TRACK 63 AUDIO
    TITLE "0:"
    INDEX 01 00:58:58
  TRACK 64 AUDIO
    TITLE "8:cjc056_3121"
    INDEX 01 00:58:71
  TRACK 65 AUDIO
    TITLE "0:"
    INDEX 01 01:00:04
  TRACK 66 AUDIO
    TITLE "9:cjc056_3122"
    INDEX 01 01:00:15
  TRACK 67 AUDIO
    TITLE "0:"
    INDEX 01 01:03:02
